<?xml version="1.0" standalone="no"?>
<!DOCTYPE svg PUBLIC "-//W3C//DTD SVG 20010904//EN"
 "http://www.w3.org/TR/2001/REC-SVG-20010904/DTD/svg10.dtd">
<svg version="1.0" xmlns="http://www.w3.org/2000/svg"
 width="175.000000pt" height="200.000000pt" viewBox="0 0 175.000000 200.000000"
 preserveAspectRatio="xMidYMid meet">

<g transform="translate(0.000000,200.000000) scale(0.100000,-0.100000)"
fill="#000000" stroke="none">
<path d="M473 1692 l-392 -227 0 -460 -1 -460 392 -225 c215 -124 397 -225
404 -225 7 0 189 101 404 225 l390 225 0 460 0 460 -391 225 c-215 124 -396
226 -402 227 -7 1 -188 -100 -404 -225z m380 -208 c-14 -11 -91 -13 -373 -13
-210 0 -349 3 -340 8 8 5 175 102 370 214 l355 206 3 -201 c2 -182 1 -202 -15
-214z m456 171 l312 -180 -348 -3 c-255 -2 -354 1 -370 9 -23 12 -23 15 -23
216 l0 204 58 -33 c32 -18 199 -114 371 -213z m-600 -229 c-81 -33 -123 -61
-170 -114 -86 -97 -125 -214 -116 -344 3 -44 4 -78 2 -76 -7 8 -307 531 -312
543 -4 13 40 15 323 15 l329 0 -56 -24z m927 2 c-8 -13 -80 -138 -161 -278
-81 -140 -148 -256 -149 -257 -1 -1 0 37 2 86 10 206 -105 385 -291 452 l-52
18 333 1 332 0 -14 -22z m-783 -2 c16 -12 17 -32 15 -216 l-3 -203 -173 -99
c-190 -110 -210 -115 -232 -56 -6 18 -15 62 -20 97 -27 207 96 404 294 473 61
21 95 22 119 4z m209 -23 c176 -83 280 -277 249 -464 -6 -37 -16 -80 -23 -94
-22 -50 -45 -43 -230 63 l-173 100 -3 198 c-2 177 -1 199 15 216 24 27 82 20
165 -19z m-617 -614 c-5 -23 -32 -43 -172 -123 -91 -53 -167 -96 -169 -96 -2
0 -4 192 -4 427 l0 427 175 -304 c147 -253 175 -308 170 -331z m1202 -216 c-2
-2 -78 40 -168 92 -162 94 -188 117 -174 154 3 9 81 146 173 305 l167 290 3
-419 c1 -230 1 -420 -1 -422z m-593 320 c116 -68 171 -105 177 -121 8 -20 1
-31 -46 -78 -171 -172 -449 -172 -620 0 -47 47 -54 58 -46 78 6 16 61 53 177
120 93 54 174 98 179 98 6 0 86 -44 179 -97z m-557 -157 c2 -1 327 -566 342
-594 12 -23 11 -23 -37 5 -514 296 -691 399 -692 403 0 3 76 49 168 102 129
74 173 95 192 91 14 -3 26 -6 27 -7z m974 -83 c93 -54 169 -100 169 -103 0 -3
-143 -87 -318 -188 -174 -100 -341 -197 -371 -214 l-54 -31 34 59 c249 437
326 563 344 567 11 2 22 5 24 6 2 0 79 -43 172 -96z m-761 -75 c45 -18 76 -22
165 -22 128 -1 185 17 273 84 28 22 52 38 52 36 0 -12 -318 -551 -325 -550 -7
2 -259 428 -311 527 -14 26 -12 25 38 -13 29 -22 78 -50 108 -62z"/>
</g>
</svg>
